<svg xmlns="http://www.w3.org/2000/svg" xmlns:xlink="http://www.w3.org/1999/xlink" width="487.98443603515625" height="350.218505859375" viewBox="0 0 487.98443603515625 350.218505859375" fill="none">
<path     fill="#000000"  d="M252.476 260.856C252.476 266.693 233.436 271.424 209.95 271.424C186.464 271.424 167.425 266.693 167.425 260.856C167.425 255.019 186.464 250.288 209.95 250.288C233.436 250.288 252.476 255.019 252.476 260.856Z">
</path>
<path d="M184.177 344.232L208.064 260.179L211.837 261.534L187.95 345.587L184.177 344.232Z" fill-rule="evenodd"  fill="url(#linear_fill_78_2)" >
</path>
<path d="M211.837 260.179L235.724 344.232L231.951 345.587L208.064 261.534L211.837 260.179Z" fill-rule="evenodd"  fill="url(#linear_fill_78_3)" >
</path>
<path d="M193.408 316.437L220.038 297.24L221.034 298.987L194.405 318.184L193.408 316.437Z" fill-rule="evenodd"  fill="url(#linear_fill_78_4)" >
</path>
<path d="M199.755 297.24L226.391 316.436L225.395 318.184L198.759 298.987L199.755 297.24Z" fill-rule="evenodd"  fill="url(#linear_fill_78_5)" >
</path>
<path d="M250.726 191.099L250.774 189.317L251.272 170.972L252.271 171.006L251.774 189.351L251.725 191.134L250.726 191.099Z" fill-rule="evenodd"  fill="#1F161E" >
</path>
<path     fill="#000000"  d="M110.73 -5.2235e-16L110.73 -5.2235e-16C113.085 -5.2235e-16 114.995 1.90964 114.995 4.26531L114.995 21.8786C114.995 24.2343 113.085 26.1439 110.73 26.1439L110.73 26.1439C108.374 26.1439 106.464 24.2343 106.464 21.8786L106.464 4.26531C106.464 1.90964 108.374 -8.10836e-16 110.73 -5.2235e-16Z">
</path>
<path     fill="#FBDC8E"  d="M119.287 44.3485C119.287 49.6622 115.456 53.9697 110.73 53.9697C106.003 53.9697 102.172 49.6622 102.172 44.3485C102.172 39.0349 106.003 34.7273 110.73 34.7273C115.456 34.7273 119.287 39.0349 119.287 44.3485Z">
</path>
<path d="M8.09975 313.217L11.3497 346.007C11.5867 348.404 13.3843 350.217 15.5297 350.217L41.2597 350.217C43.425 350.217 45.2354 348.369 45.4497 345.947L48.5597 313.157C48.6877 311.821 48.2982 310.487 47.4997 309.487C46.7016 308.487 45.5648 307.917 44.3697 307.917L12.2797 307.917C11.075 307.917 9.92942 308.503 9.12975 309.517C8.33048 310.53 7.95715 311.872 8.09975 313.217Z"   fill="#969696" >
</path>
<path     fill="#D8D8D8"  d="M4.05 300.826L52.7534 300.826C54.9902 300.826 56.8034 302.639 56.8034 304.876L56.8034 308.503C56.8034 310.74 54.9902 312.553 52.7534 312.553L4.05 312.553C1.81325 312.553 -1.82118e-15 310.74 -1.4103e-15 308.503L4.70099e-16 304.876C6.0706e-16 302.639 1.81325 300.826 4.05 300.826Z">
</path>
<path d="M373.4 127.866L373.4 161.046C373.4 162.168 374.212 163.086 375.21 163.086L395.01 163.086C396.009 163.086 396.82 162.168 396.82 161.046L396.82 133.466C396.82 132.927 396.629 132.408 396.29 132.026L391.3 126.426C390.963 126.045 390.508 125.826 390.03 125.826L375.21 125.826C374.73 125.826 374.269 126.044 373.93 126.426C373.592 126.808 373.4 127.326 373.4 127.866Z"   fill="#D8D8D8" >
</path>
<path     fill="#78E5E1"  d="M339.666 87.894L372.432 87.894C374.106 87.894 375.462 89.2506 375.462 90.924L375.462 102.213C375.462 103.886 374.106 105.243 372.432 105.243L339.666 105.243C337.993 105.243 336.636 103.886 336.636 102.213L336.636 90.924C336.636 89.2506 337.993 87.894 339.666 87.894Z">
</path>
<path d="M360.716 101.212L351.366 101.212L356.046 117.132L360.716 101.212Z"   fill="#78E5E1" >
</path>
<path d="M342.856 100.146L350.696 100.146L346.776 92.5155L342.856 100.146Z"   fill="#FFFFFF" >
</path>
<path d="M369.233 92.5155L361.393 92.5155L365.313 100.146L369.233 92.5155Z"   fill="#FFFFFF" >
</path>
<path     fill="#FFFFFF"  d="M358.987 96.3334C358.987 98.1618 357.669 99.644 356.043 99.644C354.416 99.644 353.098 98.1618 353.098 96.3334C353.098 94.505 354.416 93.0228 356.043 93.0228C357.669 93.0228 358.987 94.505 358.987 96.3334Z">
</path>
<path     fill="#D8D8D8"  d="M331.079 51.1288L352.153 51.1288C353.616 51.1288 354.803 52.3152 354.803 53.7788L354.803 67.9939C354.803 69.4575 353.616 70.6439 352.153 70.6439L331.079 70.6439C329.616 70.6439 328.429 69.4575 328.429 67.9939L328.429 53.7788C328.429 52.3152 329.616 51.1288 331.079 51.1288Z">
</path>
<path d="M329.466 51.3864L341.824 60.53L341.407 61.2418L329.05 52.0981L329.466 51.3864Z" fill-rule="evenodd"  fill="#969696" >
</path>
<path d="M341.408 60.5313L354.595 50.7737L355.011 51.4855L341.824 61.243L341.408 60.5313Z" fill-rule="evenodd"  fill="#969696" >
</path>
<path     fill="#FBDC8E"  d="M358.576 51.1289C358.576 53.4719 356.887 55.3713 354.803 55.3713C352.719 55.3713 351.029 53.4719 351.029 51.1289C351.029 48.7859 352.719 46.8865 354.803 46.8865C356.887 46.8865 358.576 48.7859 358.576 51.1289Z">
</path>
<path     fill="#FFFFFF"  d="M354.353 55.1727L357.288 55.1727L357.288 54.6179L356.215 54.6179L356.215 49.8218L355.704 49.8218C355.412 49.9897 355.069 50.1138 354.594 50.2014L354.594 50.6248L355.551 50.6248L355.551 54.6179L354.353 54.6179L354.353 55.1727Z">
</path>
<path     fill="#D8D8D8"  d="M389.168 63.0304L486.765 63.0304C487.438 63.0304 487.984 63.5765 487.984 64.2501L487.984 64.2501C487.984 64.9237 487.438 65.4698 486.765 65.4698L389.168 65.4698C388.494 65.4698 387.948 64.9237 387.948 64.2501L387.948 64.2501C387.948 63.5765 388.494 63.0304 389.168 63.0304Z">
</path>
<path     fill="#969696"  d="M425.19 14.5909L429.497 14.5909C430.91 14.5909 432.057 15.7371 432.057 17.1509L432.057 60.4703C432.057 61.8842 430.91 63.0303 429.497 63.0303L425.19 63.0303C423.776 63.0303 422.63 61.8842 422.63 60.4703L422.63 17.1509C422.63 15.7371 423.776 14.5909 425.19 14.5909Z">
</path>
<path     fill="#D8D8D8"  d="M434.186 25.9471L434.643 25.9471C435.82 25.9471 436.773 26.9008 436.773 28.0771L436.773 60.9005C436.773 62.0768 435.82 63.0305 434.643 63.0305L434.186 63.0305C433.01 63.0305 432.056 62.0768 432.056 60.9005L432.056 28.0771C432.056 26.9008 433.01 25.9471 434.186 25.9471Z">
</path>
<path     fill="#969696"  d="M438.833 25.9471L439.43 25.9471C440.568 25.9471 441.49 26.8694 441.49 28.0071L441.49 60.9705C441.49 62.1082 440.568 63.0305 439.43 63.0305L438.833 63.0305C437.696 63.0305 436.773 62.1082 436.773 60.9705L436.773 28.0071C436.773 26.8694 437.696 25.9471 438.833 25.9471Z">
</path>
<path     fill="#D8D8D8"  d="M442.538 29.1092L442.915 28.9148C443.995 28.3575 445.242 28.8176 445.702 29.9424L457.8 59.5703C458.259 60.6951 457.756 62.0588 456.677 62.6161L456.3 62.8105C455.22 63.3678 453.973 62.9077 453.513 61.7829L441.415 32.155C440.956 31.0302 441.458 29.6665 442.538 29.1092Z">
</path>
<path     fill="#D8D8D8"  d="M429.975 47.8106C429.975 49.4466 428.795 50.7728 427.34 50.7728C425.885 50.7728 424.705 49.4466 424.705 47.8106C424.705 46.1747 425.885 44.8485 427.34 44.8485C428.795 44.8485 429.975 46.1747 429.975 47.8106Z">
</path>
<path     fill="#D8D8D8"  d="M425.033 52.5455L429.647 52.5455C430.04 52.5455 430.359 52.8644 430.359 53.2577L430.359 53.2577C430.359 53.6509 430.04 53.9698 429.647 53.9698L425.033 53.9698C424.64 53.9698 424.321 53.6509 424.321 53.2577L424.321 53.2577C424.321 52.8644 424.64 52.5455 425.033 52.5455Z">
</path>
<path     fill="#D8D8D8"  d="M425.033 56.1896L429.647 56.1896C430.04 56.1896 430.359 56.5084 430.359 56.9017L430.359 56.9017C430.359 57.295 430.04 57.6138 429.647 57.6138L425.033 57.6138C424.64 57.6138 424.321 57.295 424.321 56.9017L424.321 56.9017C424.321 56.5084 424.64 56.1896 425.033 56.1896Z">
</path>
<path     fill="#969696"  d="M376.761 129.25L381.374 129.25C381.767 129.25 382.086 129.569 382.086 129.962L382.086 129.962C382.086 130.356 381.767 130.674 381.374 130.674L376.761 130.674C376.367 130.674 376.049 130.356 376.049 129.962L376.049 129.962C376.049 129.569 376.367 129.25 376.761 129.25Z">
</path>
<path     fill="#969696"  d="M376.761 132.674L381.374 132.674C381.767 132.674 382.086 132.993 382.086 133.386L382.086 133.386C382.086 133.78 381.767 134.098 381.374 134.098L376.761 134.098C376.367 134.098 376.049 133.78 376.049 133.386L376.049 133.386C376.049 132.993 376.367 132.674 376.761 132.674Z">
</path>
<path     fill="#969696"  d="M376.484 138.53L393.745 138.53C394.138 138.53 394.457 138.849 394.457 139.242L394.457 139.242C394.457 139.636 394.138 139.955 393.745 139.955L376.484 139.955C376.091 139.955 375.772 139.636 375.772 139.242L375.772 139.242C375.772 138.849 376.091 138.53 376.484 138.53Z">
</path>
<path     fill="#969696"  d="M376.484 141.894L393.745 141.894C394.138 141.894 394.457 142.213 394.457 142.606L394.457 142.606C394.457 142.999 394.138 143.318 393.745 143.318L376.484 143.318C376.091 143.318 375.772 142.999 375.772 142.606L375.772 142.606C375.772 142.213 376.091 141.894 376.484 141.894Z">
</path>
<path     fill="#969696"  d="M376.484 145.258L393.745 145.258C394.138 145.258 394.457 145.577 394.457 145.97L394.457 145.97C394.457 146.363 394.138 146.682 393.745 146.682L376.484 146.682C376.091 146.682 375.772 146.363 375.772 145.97L375.772 145.97C375.772 145.577 376.091 145.258 376.484 145.258Z">
</path>
<path     fill="#969696"  d="M434.415 30.9926L434.415 30.9926C434.687 30.9926 434.907 31.2128 434.907 31.4845L434.907 57.4855C434.907 57.7572 434.687 57.9774 434.415 57.9774L434.415 57.9774C434.143 57.9774 433.923 57.7572 433.923 57.4855L433.923 31.4845C433.923 31.2128 434.143 30.9926 434.415 30.9926Z">
</path>
<path     fill="#D8D8D8"  d="M410.204 64.2499L414.005 64.2499C415.047 64.2499 415.892 65.0944 415.892 66.1362L415.892 66.1362C415.892 67.178 415.047 68.0226 414.005 68.0226L410.204 68.0226C409.162 68.0226 408.318 67.178 408.318 66.1362L408.318 66.1362C408.318 65.0944 409.162 64.2499 410.204 64.2499Z">
</path>
<path     fill="#D8D8D8"  d="M461.927 64.2499L465.728 64.2499C466.77 64.2499 467.615 65.0944 467.615 66.1362L467.615 66.1362C467.615 67.178 466.77 68.0226 465.728 68.0226L461.927 68.0226C460.885 68.0226 460.041 67.178 460.041 66.1362L460.041 66.1362C460.041 65.0944 460.885 64.2499 461.927 64.2499Z">
</path>
<path     fill="#D8D8D8"  d="M286.031 67.9396L302.805 67.9396C309.432 67.9396 314.805 73.3122 314.805 79.9396L314.805 87.6138C314.805 94.2412 309.432 99.6138 302.805 99.6138L286.031 99.6138C279.404 99.6138 274.031 94.2412 274.031 87.6138L274.031 79.9396C274.031 73.3122 279.404 67.9396 286.031 67.9396Z">
</path>
<path     fill="#AB8DE5"  d="M282.467 73.038L288.599 73.038L288.599 94.5152L282.467 94.5152L282.467 73.038Z">
</path>
<path     fill="#AB8DE5"  d="M291.355 87.3259L297.487 87.3259L297.487 94.5229L291.355 94.5229L291.355 87.3259Z">
</path>
<path     fill="#AB8DE5"  d="M300.236 81.2651L306.368 81.2651L306.368 94.5151L300.236 94.5151L300.236 81.2651Z">
</path>
<path d="M92.4822 23.8309C87.6423 29.271 84.9222 36.6564 84.9222 44.351L136.542 44.351C136.542 36.6564 133.822 29.271 128.982 23.8309C124.142 18.3909 117.576 15.3409 110.732 15.3409C103.888 15.3409 97.3227 18.3909 92.4822 23.8309Z"   fill="#AB8DE5" >
</path>
<path d="M314.072 349.049C315.938 350.094 336.462 350.732 337.392 349.679C338.322 348.626 338.877 346.427 338.062 345.799C337.247 345.17 329.31 343.39 328.232 342.549C327.154 341.708 325.656 337.252 326.202 334.889C327.843 327.783 313.152 327.548 313.152 334.889C313.152 336.684 312.205 348.003 314.072 349.049Z"   fill="#1F161E" >
</path>
<path d="M251.134 193.379C251.316 190.538 251.804 186.829 251.804 186.829L263.354 182.179C262.856 158.489 257.929 105.55 250.934 97.6788C249.29 95.8381 216.766 92.6288 210.964 92.6288C176.343 92.6288 166.083 97.0689 163.474 100.009C155.389 109.099 152.864 151.219 152.864 165.969C152.864 180.719 189.924 188.369 189.924 188.369L233.364 191.729C233.364 191.729 242.893 192.834 251.134 193.379Z"   fill="#78E5E1" >
</path>
<path d="M315.274 263.338L338.694 320.018L356.044 320.018C356.044 317.518 334.49 208.904 327.644 201.328C320.798 193.753 289.375 199.515 286.214 200.568L315.274 263.338Z"   fill="#1F161E" >
</path>
<path d="M166.267 224.245C166.267 257.632 190.594 258.335 199.327 258.335C226.536 258.335 270.555 249.242 273.527 247.575C275.501 251.287 311.84 334.701 312.007 336.565L328.737 336.565C328.737 336.565 318.369 211.776 299.657 197.625C293.579 193.079 185.751 188.208 171.797 190.905C171.009 195.336 166.267 200.101 166.267 224.245Z"   fill="#55B79D" >
</path>
<path d="M251.803 169.87L251.283 191.27C260.716 186.998 262.907 181.05 265.643 181.05C272.475 181.05 276.047 185.02 280.083 185.02C282.9 185.02 287.963 182.529 287.963 179.15C287.963 172.075 275.207 166.5 269.763 166.5C265.369 166.5 261.749 167.673 251.803 169.87Z"   fill="#F8CDBA" >
</path>
<path d="M340.6 332.688C342.467 333.741 362.99 334.363 363.92 333.318C364.85 332.272 365.406 330.067 364.59 329.438C363.775 328.809 355.838 327.019 354.76 326.178C353.682 325.337 352.185 320.881 352.73 318.518C354.371 311.412 339.68 311.177 339.68 318.518C339.68 320.321 338.734 331.635 340.6 332.688Z"   fill="#1F161E" >
</path>
<path d="M217.093 74.4393L202.343 74.4393L202.343 97.6693C202.343 100.609 217.093 100.525 217.093 97.6693L217.093 74.4393Z"   fill="#F8CDBA" >
</path>
<path d="M202.343 76.1515L202.343 88.7615C202.343 86.3752 210.945 82.1015 212.293 82.1015C212.293 82.1015 204.486 76.1515 202.343 76.1515Z"   fill="#1F161E" >
</path>
<path     fill="#F8CDBA"  d="M232.995 63.0076C232.995 74.0952 225.001 83.0834 215.139 83.0834C205.277 83.0834 197.282 74.0952 197.282 63.0076C197.282 51.9201 205.277 42.9319 215.139 42.9319C225.001 42.9319 232.995 51.9201 232.995 63.0076Z">
</path>
<path d="M194.668 71.2147C194.668 73.6313 196.388 75.2247 197.258 75.2247C198.942 75.2247 199.948 74.5621 199.948 73.5547C199.948 72.0773 201.148 67.4968 201.148 66.3147C201.7 59.4135 204.436 55.9601 206.828 54.4447C211.248 51.6113 217.462 53.0047 221.728 53.0047C226.734 53.0047 229.568 51.1947 229.568 51.1947C230.337 52.4407 231.011 53.7539 231.588 55.1247C233.879 55.1247 240.028 49.7899 240.028 44.0247C240.028 41.3733 238.267 37.4947 233.018 37.4947C230.273 37.483 227.615 38.5873 225.546 40.6073C225.495 40.6636 225.445 40.7129 225.398 40.7547C225.447 40.705 225.496 40.6559 225.546 40.6073C226.503 39.5622 228.148 36.0732 228.148 32.0047C228.148 29.3154 225.99 27.2047 221.408 27.2047C217.399 27.2047 207.288 31.1459 207.288 39.7747C206.85 39.3887 205.755 38.4747 202.278 38.4747C198.464 38.4747 193.078 44.3221 193.078 53.8147C193.078 60.4053 195.658 62.6932 195.658 65.0647C195.658 67.4357 194.668 68.4193 194.668 71.2147ZM225.398 40.7547C225.445 40.7129 225.495 40.6636 225.546 40.6073C225.496 40.6559 225.447 40.705 225.398 40.7547Z"   fill="#1F161E" >
</path>
<path     fill="#F8CDBA"  d="M205.503 65.6591C205.503 68.023 203.799 69.9394 201.696 69.9394C199.593 69.9394 197.889 68.023 197.889 65.6591C197.889 63.2951 199.593 61.3788 201.696 61.3788C203.799 61.3788 205.503 63.2951 205.503 65.6591Z">
</path>
<path     fill="#FA9E9F"  d="M236.122 64.9621C236.122 65.9161 234.8 66.6894 233.17 66.6894C231.54 66.6894 230.219 65.9161 230.219 64.9621C230.219 64.0082 231.54 63.2349 233.17 63.2349C234.8 63.2349 236.122 64.0082 236.122 64.9621Z">
</path>
<path     fill="#FA9E9F"  d="M217.558 64.9621C217.558 65.9161 216.237 66.6894 214.607 66.6894C212.977 66.6894 211.655 65.9161 211.655 64.9621C211.655 64.0082 212.977 63.2349 214.607 63.2349C216.237 63.2349 217.558 64.0082 217.558 64.9621Z">
</path>
<path d="M226.55 62.7364L226.459 61.338L225.462 61.4199L225.86 67.5331C225.903 68.1984 226.9 68.1165 226.856 67.4512L226.55 62.7364Z" fill-rule="evenodd"  fill="#1F161E" >
</path>
<path d="M217.697 69.0514L219.004 70.0857L220.675 71.4074L220.141 72.2603L218.471 70.9385L217.163 69.9043L217.697 69.0514Z" fill-rule="evenodd"  fill="#1F161E" >
</path>
<path d="M244.44 125.641L248.244 147.02L252.29 169.763L251.314 169.982L247.267 147.239L243.463 125.861L244.44 125.641Z" fill-rule="evenodd"  fill="#1F161E" >
</path>
<path d="M186.854 163.49L152.864 163.47C152.864 198.386 153.158 208.52 165.624 208.52C194.356 208.52 237.782 182 245.524 182C252.364 182 255.938 185.97 259.974 185.97C262.783 185.97 267.854 183.481 267.854 180.11C267.854 173.027 255.092 167.45 249.654 167.45C237.411 167.45 188.556 180.72 187.364 180.72C186.172 180.72 184.164 180.138 184.164 177.88C184.164 173.781 186.545 164.316 186.854 163.49Z"   fill="#F8CDBA" >
</path>
<path d="M185.584 166.357L189.561 149.649L193.555 132.871L194.514 133.16L190.52 149.938L186.543 166.645L185.584 166.357Z" fill-rule="evenodd"  fill="#1F161E" >
</path>
<path     fill="#969696"  d="M441.525 348.308L441.525 348.308C439.682 348.853 437.834 347.777 437.396 345.906L402.727 197.648C402.29 195.776 403.429 193.818 405.272 193.273L405.272 193.273C407.114 192.729 408.963 193.804 409.401 195.675L444.069 343.934C444.507 345.805 443.368 347.763 441.525 348.308Z">
</path>
<path     fill="#969696"  d="M400.01 193.28L400.01 193.28C401.853 193.824 402.992 195.783 402.554 197.654L367.886 345.913C367.448 347.784 365.599 348.859 363.757 348.314L363.757 348.314C361.914 347.77 360.775 345.811 361.212 343.94L395.881 195.681C396.319 193.81 398.167 192.735 400.01 193.28Z">
</path>
<path     fill="#D8D8D8"  d="M352.405 193.279L352.405 193.279C354.248 193.824 355.387 195.782 354.95 197.653L320.281 345.912C319.843 347.783 317.995 348.858 316.152 348.313L316.152 348.313C314.309 347.769 313.17 345.81 313.608 343.939L348.277 195.681C348.714 193.809 350.563 192.734 352.405 193.279Z">
</path>
<path     fill="#D8D8D8"  d="M393.316 345.612L393.316 345.612C391.468 346.148 389.621 345.062 389.191 343.186L355.103 194.484C354.673 192.609 355.822 190.654 357.671 190.118L357.671 190.118C359.519 189.583 361.366 190.669 361.796 192.545L395.884 341.247C396.314 343.122 395.164 345.077 393.316 345.612Z">
</path>
<path     fill="#969696"  d="M158.06 193.283L158.06 193.283C159.903 193.827 161.042 195.786 160.605 197.657L125.936 345.915C125.498 347.787 123.65 348.862 121.807 348.317L121.807 348.317C119.964 347.772 118.825 345.814 119.262 343.943L153.931 195.684C154.369 193.813 156.217 192.738 158.06 193.283Z">
</path>
<path     fill="#969696"  d="M198.989 348.318L198.989 348.318C197.146 348.862 195.298 347.787 194.86 345.916L160.191 197.657C159.754 195.786 160.893 193.828 162.736 193.283L162.736 193.283C164.578 192.738 166.427 193.814 166.865 195.685L201.533 343.943C201.971 345.814 200.832 347.773 198.989 348.318Z">
</path>
<path     fill="#D8D8D8"  d="M91.5276 185.992L422.23 185.992C424.732 185.992 426.76 188.021 426.76 190.522L426.76 192.94C426.76 195.442 424.732 197.47 422.23 197.47L91.5276 197.47C89.0258 197.47 86.9976 195.442 86.9976 192.94L86.9976 190.522C86.9976 188.021 89.0258 185.992 91.5276 185.992Z">
</path>
<path     fill="#D8D8D8"  d="M108.753 193.285L108.753 193.285C110.596 193.829 111.735 195.788 111.298 197.659L76.6286 345.918C76.1911 347.789 74.3425 348.864 72.4998 348.32L72.4998 348.32C70.657 347.775 69.5179 345.816 69.9554 343.945L104.624 195.686C105.062 193.815 106.91 192.74 108.753 193.285Z">
</path>
<path     fill="#D8D8D8"  d="M149.682 348.318L149.682 348.318C147.839 348.862 145.99 347.787 145.553 345.916L110.884 197.657C110.446 195.786 111.585 193.828 113.428 193.283L113.428 193.283C115.271 192.738 117.119 193.814 117.557 195.685L152.226 343.944C152.663 345.815 151.524 347.773 149.682 348.318Z">
</path>
<path d="M347.376 145.066C347.757 143.541 347.476 141.901 346.616 140.646C345.756 139.391 344.415 138.671 343.006 138.696L290.116 138.696C288.106 138.684 286.325 140.162 285.746 142.326L274.456 185.996L336.796 185.996L347.376 145.066Z"   fill="#000000" >
</path>
<path     fill="#FFFFFF"  d="M317.089 162.341C317.089 164.709 315.381 166.629 313.275 166.629C311.168 166.629 309.461 164.709 309.461 162.341C309.461 159.973 311.168 158.053 313.275 158.053C315.381 158.053 317.089 159.973 317.089 162.341Z">
</path>
<path     fill="#000000"  d="M238.123 182.924L281.861 182.924L281.861 185.992L238.123 185.992L238.123 182.924Z">
</path>
<defs>
<linearGradient id="linear_fill_78_2" x1="211.8370361328125" y1="261.5343017578125" x2="211.8370361328125" y2="261.5343017578125" gradientUnits="userSpaceOnUse">
</linearGradient>
<linearGradient id="linear_fill_78_3" x1="211.8370361328125" y1="260.1788330078125" x2="211.8370361328125" y2="260.1788330078125" gradientUnits="userSpaceOnUse">
</linearGradient>
<linearGradient id="linear_fill_78_4" x1="193.40826416015625" y1="316.4368896484375" x2="193.40826416015625" y2="316.4368896484375" gradientUnits="userSpaceOnUse">
</linearGradient>
<linearGradient id="linear_fill_78_5" x1="199.75494384765625" y1="297.23974609375" x2="199.75494384765625" y2="297.23974609375" gradientUnits="userSpaceOnUse">
</linearGradient>
</defs>
</svg>
