<svg xmlns="http://www.w3.org/2000/svg" xmlns:xlink="http://www.w3.org/1999/xlink" width="905" height="2919" viewBox="0 0 905 2919" fill="none">
<ellipse  cx="223.7369613647461" cy="2829.5755004882812" rx="42.525108337402344" ry="10.56817626953125"    fill="#000000" >
</ellipse>
<path    stroke="url(#linear_border_11_157_0)" stroke-width="4"    d="M199.85 2913.63L223.737 2829.58">
</path>
<path    stroke="url(#linear_border_11_158_0)" stroke-width="4"    d="M223.737 2829.58L247.624 2913.63">
</path>
<path    stroke="url(#linear_border_11_159_0)" stroke-width="2"    d="M207.693 2886.03L234.322 2866.83">
</path>
<path    stroke="url(#linear_border_11_160_0)" stroke-width="2"    d="M213.043 2866.83L239.679 2886.03">
</path>
<path    stroke="rgba(31, 22, 30, 1)" stroke-width="1"    d="M265.012 2759.84C265.109 2756.26 265.067 2757.82 265.558 2739.71">
</path>
<rect  x="120.2508544921875" y="2568.7197265625" width="8.530624389648438" height="26.143951416015625" rx="4.265312194824219"    fill="#000000" >
</rect>
<ellipse  cx="124.51613998413086" cy="2613.0679931640625" rx="8.55758285522461" ry="9.6212158203125"    fill="#FBDC8E" >
</ellipse>
<path d="M48.6605 2857.38C43.0181 2890.87 44.0248 2884.9 54.8552 2820.6C65.0826 2759.89 55.5441 2816.52 48.6605 2857.38Z"   fill="#000000" >
</path>
<path d="M5.63604 2809.6C13.8186 2825.86 48.0691 2893.96 32.4025 2862.81C17.6013 2833.38 -4.32693 2789.79 5.63604 2809.6Z"   fill="#FBDC8E" >
</path>
<path d="M22.9188 2878.23C23.7185 2877.22 24.8653 2876.64 26.0701 2876.64L58.1579 2876.64C59.353 2876.64 60.4913 2877.21 61.2894 2878.21C62.0878 2879.21 62.4702 2880.54 62.3422 2881.88L59.2359 2914.67C59.0216 2917.09 57.21 2918.94 55.0447 2918.94L29.3182 2918.94C27.1728 2918.94 25.3705 2917.12 25.1335 2914.73L21.8858 2881.94C21.7432 2880.59 22.1195 2879.24 22.9188 2878.23Z"   fill="#969696" >
</path>
<path d="M52.7531 2813.96C46.8863 2836.64 51.3827 2819.25 62.6173 2775.82C73.2236 2734.81 59.8928 2786.35 52.7531 2813.96Z"   fill="#AB8DE5" >
</path>
<path d="M49.9723 2856C43.8648 2863.98 68.7101 2831.51 80.4485 2816.17C91.5336 2801.69 57.4297 2846.25 49.9723 2856Z"   fill="#FBDC8E" >
</path>
<path d="M42.2491 2820.44C42.2491 2866.7 42.2491 2909.06 42.2491 2820.44C42.2491 2736.75 42.2491 2764.11 42.2491 2820.44Z"   fill="#78E5E1" >
</path>
<rect  x="13.7864990234375" y="2869.54541015625" width="56.80341625213623" height="11.727294921875" rx="4.05"    fill="#D8D8D8" >
</rect>
<path d="M387.714 2695.14C387.375 2695.53 387.185 2696.04 387.187 2696.58L387.187 2729.76C387.187 2730.89 387.994 2731.8 388.993 2731.8L408.797 2731.8C409.795 2731.8 410.602 2730.89 410.602 2729.76L410.602 2702.19C410.604 2701.65 410.415 2701.13 410.077 2700.75L405.09 2695.14C404.753 2694.76 404.295 2694.55 403.817 2694.55L388.993 2694.55C388.513 2694.55 388.052 2694.76 387.714 2695.14Z"   fill="#D8D8D8" >
</path>
<rect  x="350.42291259765625" y="2656.61376953125" width="38.8258056640625" height="17.348480224609375" rx="3.03"    fill="#78E5E1" >
</rect>
<path d="M369.829 2685.86L374.506 2669.93L365.153 2669.93L369.829 2685.86Z"   fill="#78E5E1" >
</path>
<path d="M360.564 2661.24L356.642 2668.86L364.479 2668.86L360.564 2661.24Z"   fill="#FFFFFF" >
</path>
<path d="M379.101 2668.86L383.023 2661.24L375.179 2661.24L379.101 2668.86Z"   fill="#FFFFFF" >
</path>
<ellipse  cx="369.8290100097656" cy="2665.0530395507812" rx="2.944610595703125" ry="3.31060791015625"    fill="#FFFFFF" >
</ellipse>
<rect  x="342.215576171875" y="2619.848388671875" width="26.373504638671875" height="19.51513671875" rx="2.65"    fill="#D8D8D8" >
</rect>
<path    stroke="rgba(150, 150, 150, 1)" stroke-width="0.82"    d="M343.044 2620.46L355.402 2629.61">
</path>
<path    stroke="rgba(150, 150, 150, 1)" stroke-width="0.82"    d="M355.403 2629.61L368.589 2619.85">
</path>
<ellipse  cx="368.5891571044922" cy="2619.8486328125" rx="3.7734222412109375" ry="4.242431640625"    fill="#FBDC8E" >
</ellipse>
<g >
<path     fill="#FFFFFF"  d="M368.14 2623.89L371.074 2623.89L371.074 2623.34L370.001 2623.34L370.001 2618.54L369.49 2618.54C369.198 2618.71 368.855 2618.83 368.381 2618.92L368.381 2619.34L369.337 2619.34L369.337 2623.34L368.14 2623.34L368.14 2623.89Z">
</path>
</g>
<rect  x="401.73480224609375" y="2631.75" width="100.0361328125" height="2.43939208984375" rx="1.219696044921875"    fill="#D8D8D8" >
</rect>
<rect  x="436.41619873046875" y="2583.310546875" width="9.42681884765625" height="48.43939208984375" rx="2.56"    fill="#969696" >
</rect>
<rect  x="445.8429870605469" y="2594.666748046875" width="4.716766357421875" height="37.083343505859375" rx="2.13"    fill="#D8D8D8" >
</rect>
<rect  x="450.5599060058594" y="2594.666748046875" width="4.716766357421875" height="37.083343505859375" rx="2.06"    fill="#969696" >
</rect>
<rect  transform="matrix(0.8886107802391052, -0.45867031812667847, 0.37804460525512695, 0.925787627696991, 454.3697204589844, 2598.837890625)" x="0" y="0" width="4.823939586875033" height="36.40285697893329" rx="2.2"    fill="#D8D8D8" >
</rect>
<ellipse  cx="441.1266326904297" cy="2616.530242919922" rx="2.6346588134765625" ry="2.962127685546875"    fill="#D8D8D8" >
</ellipse>
<rect  x="438.1077575683594" y="2621.26513671875" width="6.0374755859375" height="1.42425537109375" rx="0.712127685546875"    fill="#D8D8D8" >
</rect>
<rect  x="438.1077575683594" y="2624.9091796875" width="6.0374755859375" height="1.42425537109375" rx="0.712127685546875"    fill="#D8D8D8" >
</rect>
<rect  x="389.8350830078125" y="2697.9697265625" width="6.0374755859375" height="1.42425537109375" rx="0.712127685546875"    fill="#969696" >
</rect>
<rect  x="389.8350830078125" y="2701.393798828125" width="6.0374755859375" height="1.42425537109375" rx="0.712127685546875"    fill="#969696" >
</rect>
<rect  x="389.5584716796875" y="2707.25" width="18.6851806640625" height="1.42425537109375" rx="0.712127685546875"    fill="#969696" >
</rect>
<rect  x="389.5584716796875" y="2710.613525390625" width="18.6851806640625" height="1.42425537109375" rx="0.712127685546875"    fill="#969696" >
</rect>
<rect  x="389.5584716796875" y="2713.9775390625" width="18.6851806640625" height="1.42425537109375" rx="0.712127685546875"    fill="#969696" >
</rect>
<rect  x="447.7096862792969" y="2599.712158203125" width="0.983795166015625" height="26.984832763671875" rx="0.4918975830078125"    fill="#969696" >
</rect>
<rect  x="422.1043701171875" y="2632.969482421875" width="7.57379150390625" height="3.772735595703125" rx="1.8863677978515625"    fill="#D8D8D8" >
</rect>
<rect  x="473.8272705078125" y="2632.969482421875" width="7.57379150390625" height="3.772735595703125" rx="1.8863677978515625"    fill="#D8D8D8" >
</rect>
<rect  x="287.81787109375" y="2636.6591796875" width="40.77313232421875" height="31.67425537109375" rx="12"    fill="#D8D8D8" >
</rect>
<rect  x="296.25396728515625" y="2641.757568359375" width="6.131805419921875" height="21.477264404296875"    fill="#AB8DE5" >
</rect>
<rect  x="305.1417236328125" y="2656.04541015625" width="6.131805419921875" height="7.19696044921875"    fill="#AB8DE5" >
</rect>
<rect  x="314.02288818359375" y="2649.98486328125" width="6.131805419921875" height="13.25"    fill="#AB8DE5" >
</rect>
<path d="M124.516 2584.06C117.672 2584.06 111.108 2587.11 106.268 2592.55C101.428 2597.99 98.7087 2605.37 98.7087 2613.07L150.324 2613.07C150.324 2605.37 147.605 2597.99 142.765 2592.55C137.924 2587.11 131.36 2584.06 124.516 2584.06Z"   fill="#AB8DE5" >
</path>
<path    stroke="url(#linear_border_11_206_0)" stroke-width="2"    d="M124.516 2521.62L124.516 2521.62">
</path>
<path d="M326.934 2903.61C326.934 2905.4 325.997 2916.73 327.863 2917.77C329.73 2918.82 350.248 2919.45 351.178 2918.4C352.108 2917.35 352.667 2915.15 351.851 2914.52C351.036 2913.89 343.092 2912.11 342.014 2911.27C340.936 2910.43 339.446 2905.97 339.992 2903.61C341.633 2896.5 326.934 2896.27 326.934 2903.61Z"   fill="#1F161E" >
</path>
<path d="M247.153 2760.45C247.153 2760.45 256.68 2761.55 264.921 2762.1C265.103 2759.26 265.588 2755.55 265.588 2755.55L277.138 2750.89C276.639 2727.2 271.714 2674.27 264.719 2666.4C263.075 2664.56 230.556 2661.35 224.755 2661.35C190.133 2661.35 179.865 2665.79 177.256 2668.73C169.171 2677.82 166.651 2719.94 166.651 2734.69C166.651 2749.44 203.711 2757.09 203.711 2757.09L247.153 2760.45Z"   fill="#78E5E1" >
</path>
<path d="M300.001 2769.29C303.161 2768.24 334.588 2762.47 341.434 2770.05C348.28 2777.62 369.829 2886.24 369.829 2888.73L352.478 2888.73L329.056 2832.06L300.001 2769.29Z"   fill="#1F161E" >
</path>
<path d="M185.579 2759.63C184.791 2764.06 180.053 2768.82 180.053 2792.96C180.053 2826.35 204.378 2827.05 213.111 2827.05C240.321 2827.05 284.341 2817.96 287.313 2816.3C289.287 2820.01 325.627 2903.42 325.794 2905.28L342.526 2905.28C342.526 2905.28 332.155 2780.49 313.443 2766.34C307.365 2761.8 199.534 2756.93 185.579 2759.63Z"   fill="#55B79D" >
</path>
<path d="M283.552 2735.22C279.159 2735.22 275.534 2736.39 265.588 2738.59L265.069 2759.99C274.503 2755.71 276.693 2749.77 279.429 2749.77C286.261 2749.77 289.833 2753.74 293.868 2753.74C296.685 2753.74 301.752 2751.25 301.752 2747.87C301.752 2740.8 288.997 2735.22 283.552 2735.22Z"   fill="#F8CDBA" >
</path>
<path d="M353.462 2887.24C353.462 2889.04 352.525 2900.36 354.392 2901.41C356.258 2902.46 376.776 2903.08 377.706 2902.04C378.636 2900.99 379.195 2898.79 378.38 2898.16C377.565 2897.53 369.62 2895.74 368.542 2894.9C367.464 2894.06 365.975 2889.6 366.52 2887.24C368.161 2880.13 353.462 2879.89 353.462 2887.24Z"   fill="#1F161E" >
</path>
<path d="M230.88 2666.39C230.88 2669.24 216.13 2669.33 216.13 2666.39L216.13 2643.16L230.88 2643.16L230.88 2666.39Z"   fill="#F8CDBA" >
</path>
<path d="M226.075 2650.82C224.728 2650.82 216.13 2655.09 216.13 2657.48L216.13 2644.87C218.272 2644.87 226.075 2650.82 226.075 2650.82Z"   fill="#1F161E" >
</path>
<ellipse  cx="228.92534637451172" cy="2631.7271118164062" rx="17.85637664794922" ry="20.07574462890625"    fill="#F8CDBA" >
</ellipse>
<path d="M209.445 2633.78C209.445 2631.41 206.864 2629.13 206.864 2622.54C206.864 2613.05 212.255 2607.2 216.069 2607.2C219.546 2607.2 220.637 2608.11 221.075 2608.49C221.075 2599.86 231.183 2595.92 235.192 2595.92C239.774 2595.92 241.93 2598.04 241.93 2600.73C241.93 2605.02 240.111 2608.66 239.188 2609.48C241.277 2607.36 243.991 2606.2 246.802 2606.21C252.051 2606.21 253.816 2610.09 253.816 2612.74C253.816 2618.51 247.664 2623.85 245.373 2623.85C244.797 2622.48 244.121 2621.16 243.352 2619.92C243.352 2619.92 240.522 2621.73 235.515 2621.73C231.25 2621.73 225.038 2620.33 220.617 2623.17C218.225 2624.68 215.482 2628.13 214.93 2635.03C214.93 2636.21 213.737 2640.8 213.737 2642.27C213.737 2643.28 212.727 2643.94 211.042 2643.94C210.173 2643.94 208.455 2642.36 208.455 2639.94C208.455 2637.14 209.445 2636.15 209.445 2633.78Z" fill-rule="evenodd"  fill="#1F161E" >
</path>
<ellipse  cx="215.48252868652344" cy="2634.378692626953" rx="3.8071136474609375" ry="4.280303955078125"    fill="#F8CDBA" >
</ellipse>
<ellipse  cx="246.95697021484375" cy="2633.681869506836" rx="2.95135498046875" ry="1.7272796630859375"    fill="#FA9E9F" >
</ellipse>
<ellipse  cx="228.39312744140625" cy="2633.681869506836" rx="2.95135498046875" ry="1.7272796630859375"    fill="#FA9E9F" >
</ellipse>
<path    stroke="rgba(31, 22, 30, 1)" stroke-width="1"    d="M239.747 2630.1C239.874 2632.04 240.518 2641.95 239.838 2631.5">
</path>
<path    stroke="rgba(31, 22, 30, 1)" stroke-width="1"    d="M231.216 2638.2C232.106 2638.9 233.474 2639.98 234.195 2640.55">
</path>
<path    stroke="rgba(31, 22, 30, 1)" stroke-width="1"    d="M257.738 2694.47C259.086 2702.04 265.588 2738.59 265.588 2738.59">
</path>
<path d="M197.949 2746.6C197.949 2742.5 200.335 2733.03 200.645 2732.2L166.651 2732.19C166.651 2767.11 166.94 2777.23 179.406 2777.23C208.138 2777.23 251.573 2750.72 259.315 2750.72C266.154 2750.72 269.726 2754.69 273.762 2754.69C276.571 2754.69 281.639 2752.2 281.639 2748.83C281.639 2741.74 268.883 2736.17 263.445 2736.17C251.203 2736.17 202.343 2749.44 201.15 2749.44C199.958 2749.44 197.949 2748.86 197.949 2746.6Z"   fill="#F8CDBA" >
</path>
<path    stroke="rgba(31, 22, 30, 1)" stroke-width="1"    d="M199.85 2735.22C200.672 2731.77 207.08 2704.85 207.821 2701.73">
</path>
<rect  transform="matrix(-0.9589828848838806, 0.28345733880996704, -0.22769799828529358, -0.9737316966056824, 458.648193359375, 2916.04150390625)" x="0" y="0" width="6.958626714921497" height="159.21694393502364" rx="3.4793133574607484"    fill="#969696" >
</rect>
<rect  transform="matrix(0.9589827656745911, 0.2834574580192566, -0.22769802808761597, 0.9737318158149719, 410.4599609375, 2761.01318359375)" x="0" y="0" width="6.958626714921497" height="159.2168914519421" rx="3.4793133574607484"    fill="#969696" >
</rect>
<rect  transform="matrix(0.9589827656745911, 0.2834574580192566, -0.22769798338413239, 0.9737318158149719, 362.8553466796875, 2761.01220703125)" x="0" y="0" width="6.958626714921497" height="159.2168914519421" rx="3.4793133574607484"    fill="#D8D8D8" >
</rect>
<rect  transform="matrix(-0.960490345954895, 0.2783171534538269, -0.22344368696212769, -0.97471684217453, 410.4489440917969, 2913.3623046875)" x="0" y="0" width="6.968284628614393" height="159.5273451179893" rx="3.4841423143071966"    fill="#D8D8D8" >
</rect>
<rect  transform="matrix(0.9589850306510925, 0.2834582030773163, -0.22769801318645477, 0.9737318158149719, 168.5101318359375, 2761.015869140625)" x="0" y="0" width="6.958612081974913" height="159.21695088381355" rx="3.4793060409874563"    fill="#969696" >
</rect>
<rect  transform="matrix(-0.9589850306510925, 0.2834582030773163, -0.22769810259342194, -0.9737318754196167, 216.1121826171875, 2916.05078125)" x="0" y="0" width="6.958612081974913" height="159.2168914519421" rx="3.4793060409874563"    fill="#969696" >
</rect>
<rect  x="100.78411865234375" y="2754.712158203125" width="339.7628631591797" height="11.477264404296875" rx="4.53"    fill="#D8D8D8" >
</rect>
<rect  transform="matrix(0.9589847326278687, 0.2834581136703491, -0.22769799828529358, 0.9737318754196167, 119.20306396484375, 2761.01806640625)" x="0" y="0" width="6.958612081974913" height="159.21701205288394" rx="3.4793060409874563"    fill="#D8D8D8" >
</rect>
<rect  transform="matrix(-0.9589851498603821, 0.28345829248428345, -0.2276979684829712, -0.9737316370010376, 166.80462646484375, 2916.051025390625)" x="0" y="0" width="6.958612081974913" height="159.21694914661555" rx="3.4793060409874563"    fill="#D8D8D8" >
</rect>
<path d="M350.578 2754.71L288.242 2754.71L299.536 2711.05C300.115 2708.88 301.892 2707.4 303.902 2707.42L356.797 2707.42C358.206 2707.39 359.543 2708.12 360.402 2709.37C361.263 2710.62 361.545 2712.26 361.163 2713.79L350.578 2754.71Z"   fill="#000000" >
</path>
<ellipse  cx="327.06129455566406" cy="2731.060577392578" rx="3.8138580322265625" ry="4.287872314453125"    fill="#FFFFFF" >
</ellipse>
<rect  x="251.9095458984375" y="2751.643798828125" width="43.738006591796875" height="3.06817626953125"    fill="#000000" >
</rect>
<defs>
<linearGradient id="linear_border_11_157_0" x1="0" y1="0" x2="0" y2="0" gradientUnits="userSpaceOnUse">
</linearGradient>
<linearGradient id="linear_border_11_158_0" x1="0" y1="0" x2="0" y2="0" gradientUnits="userSpaceOnUse">
</linearGradient>
<linearGradient id="linear_border_11_159_0" x1="0" y1="0" x2="0" y2="0" gradientUnits="userSpaceOnUse">
</linearGradient>
<linearGradient id="linear_border_11_160_0" x1="0" y1="0" x2="0" y2="0" gradientUnits="userSpaceOnUse">
</linearGradient>
<linearGradient id="linear_border_11_206_0" x1="0" y1="0" x2="0" y2="0" gradientUnits="userSpaceOnUse">
</linearGradient>
</defs>
</svg>
